<svg width="960" height="600" version="1.1" xmlns="http://www.w3.org/2000/svg"><g></g><g transform="translate(480,300)scale(1.0147991180419922,1.0147991180419922)"><text text-anchor="middle" transform="translate(232,63)rotate(21.999999006829288)scale(1.0000000058678755,1.0000000058678755)" style="font-size: 100px; font-family: Impact; fill: rgb(206, 219, 156);">data</text><text text-anchor="middle" transform="translate(-162,-120)rotate(-0.999999946548801)skewX(1.9878466461721274e-16)scale(1.000000014962205,1.000000014962205)" style="font-size: 100px; font-family: Impact; fill: rgb(107, 110, 207);">biostatistics</text><text text-anchor="middle" transform="translate(97,106)rotate(10.499999898849145)scale(1.000000001657459,1.000000001657459)" style="font-size: 90px; font-family: Impact; fill: rgb(156, 158, 222);">health</text><text text-anchor="middle" transform="translate(-108,36)rotate(-12.50000031372537)skewX(0)scale(1.000000001739636,1.000000001739636)" style="font-size: 60px; font-family: Impact; fill: rgb(99, 121, 57);">analysis</text><text text-anchor="middle" transform="translate(-313,-18)rotate(10.499999898849143)scale(1.000000001657459,1.000000001657459)" style="font-size: 60px; font-family: Impact; fill: rgb(140, 162, 82);">research</text><text text-anchor="middle" transform="translate(229,-58)rotate(-12.500000313725367)scale(1.000000001739636,1.000000001739636)" style="font-size: 52px; font-family: Impact; fill: rgb(181, 207, 107);">public</text><text text-anchor="middle" transform="translate(158,181)rotate(21.999999006829288)scale(1.0000000058678755,1.0000000058678755)" style="font-size: 52px; font-family: Impact; fill: rgb(206, 219, 156);">healthcare</text><text text-anchor="middle" transform="translate(-146,91)rotate(-12.50000031372537)skewX(0)scale(1.000000001739636,1.000000001739636)" style="font-size: 44px; font-family: Impact; fill: rgb(140, 109, 49);">study</text><text text-anchor="middle" transform="translate(-67,158)rotate(-24.000000601119346)skewX(3.1805547638674516e-15)scale(0.9999999740913329,0.9999999740913329)" style="font-size: 44px; font-family: Impact; fill: rgb(189, 158, 57);">practical</text><text text-anchor="middle" transform="translate(115,-181)rotate(21.999999006829288)skewX(0)scale(1.0000000058678755,1.0000000058678755)" style="font-size: 44px; font-family: Impact; fill: rgb(231, 186, 82);">problems</text><text text-anchor="middle" transform="translate(-271,107)rotate(21.999999006829288)skewX(0)scale(1.0000000058678755,1.0000000058678755)" style="font-size: 44px; font-family: Impact; fill: rgb(231, 203, 148);">methods</text><text text-anchor="middle" transform="translate(-21,183)rotate(-24.00000060111935)skewX(3.1805547638674516e-15)scale(0.9999999740913329,0.9999999740913329)" style="font-size: 44px; font-family: Impact; fill: rgb(132, 60, 57);">hospital</text><text text-anchor="middle" transform="translate(95,3)rotate(10.499999898849145)skewX(0)scale(1.000000001657459,1.000000001657459)" style="font-size: 35px; font-family: Impact; fill: rgb(173, 73, 74);">process</text><text text-anchor="middle" transform="translate(304,137)rotate(-24.00000060111935)skewX(3.1805547638674516e-15)scale(0.9999999740913329,0.9999999740913329)" style="font-size: 35px; font-family: Impact; fill: rgb(214, 97, 107);">statistics</text><text text-anchor="middle" transform="translate(163,-126)rotate(21.999999006829288)skewX(0)scale(1.0000000058678755,1.0000000058678755)" style="font-size: 35px; font-family: Impact; fill: rgb(123, 65, 115);">scientific</text><text text-anchor="middle" transform="translate(142,-222)rotate(10.499999898849145)skewX(0)scale(1.000000001657459,1.000000001657459)" style="font-size: 35px; font-family: Impact; fill: rgb(165, 81, 148);">academic</text><text text-anchor="middle" transform="translate(-255,-86)rotate(-0.999999946548801)skewX(1.9878466461721288e-16)scale(1.000000014962205,1.000000014962205)" style="font-size: 35px; font-family: Impact; fill: rgb(206, 109, 189);">theories</text><text text-anchor="middle" transform="translate(294,-32)rotate(-24.00000060111935)skewX(3.1805547638674516e-15)scale(0.9999999740913329,0.9999999740913329)" style="font-size: 35px; font-family: Impact; fill: rgb(222, 158, 214);">medical</text><text text-anchor="middle" transform="translate(-330,33)rotate(21.999999006829288)skewX(0)scale(1.0000000058678755,1.0000000058678755)" style="font-size: 52px; font-family: Impact; fill: rgb(57, 59, 121);">science</text><text text-anchor="middle" transform="translate(338,159)rotate(-24.00000060111935)skewX(3.1805547638674516e-15)scale(0.9999999740913329,0.9999999740913329)" style="font-size: 35px; font-family: Impact; fill: rgb(82, 84, 163);">projects</text><text text-anchor="middle" transform="translate(-59,64)rotate(-12.500000313725367)scale(1.000000001739636,1.000000001739636)" style="font-size: 35px; font-family: Impact; fill: rgb(107, 110, 207);">work</text><text text-anchor="middle" transform="translate(360,36)rotate(21.999999006829288)skewX(0)scale(1.0000000058678755,1.0000000058678755)" style="font-size: 24px; font-family: Impact; fill: rgb(140, 162, 82);">application</text><text text-anchor="middle" transform="translate(-344,110)rotate(10.499999898849145)scale(1.000000001657459,1.000000001657459)" style="font-size: 24px; font-family: Impact; fill: rgb(181, 207, 107);">sciences</text><text text-anchor="middle" transform="translate(72,177)rotate(10.499999898849143)skewX(0)scale(1.000000001657459,1.000000001657459)" style="font-size: 24px; font-family: Impact; fill: rgb(206, 219, 156);">apply</text><text text-anchor="middle" transform="translate(-148,220)rotate(-12.50000031372537)skewX(0)scale(1.000000001739636,1.000000001739636)" style="font-size: 24px; font-family: Impact; fill: rgb(189, 158, 57);">wellbeing</text><text text-anchor="middle" transform="translate(142,-111)rotate(21.999999006829288)skewX(0)scale(1.0000000058678755,1.0000000058678755)" style="font-size: 24px; font-family: Impact; fill: rgb(132, 60, 57);">courses</text><text text-anchor="middle" transform="translate(-167,-3)rotate(-0.999999946548801)skewX(1.9878466461721274e-16)scale(1.000000014962205,1.000000014962205)" style="font-size: 24px; font-family: Impact; fill: rgb(173, 73, 74);">SPSS</text><text text-anchor="middle" transform="translate(-121,-96)rotate(10.499999898849143)skewX(0)scale(1.000000001657459,1.000000001657459)" style="font-size: 24px; font-family: Impact; fill: rgb(206, 109, 189);">take</text><text text-anchor="middle" transform="translate(-14,-97)rotate(-12.500000313725373)skewX(0)scale(1.000000001739636,1.000000001739636)" style="font-size: 24px; font-family: Impact; fill: rgb(222, 158, 214);">help</text><text text-anchor="middle" transform="translate(-369,130)rotate(10.499999898849145)scale(1.000000001657459,1.000000001657459)" style="font-size: 24px; font-family: Impact; fill: rgb(57, 59, 121);">citizens</text><text text-anchor="middle" transform="translate(-217,68)rotate(-0.9999999465488009)skewX(1.9878466461721288e-16)scale(1.000000014962205,1.000000014962205)" style="font-size: 10px; font-family: Impact; fill: rgb(231, 186, 82);">learning</text><text text-anchor="middle" transform="translate(253,93)rotate(21.999999006829288)scale(1.0000000058678755,1.0000000058678755)" style="font-size: 10px; font-family: Impact; fill: rgb(231, 203, 148);">metabolomics</text><text text-anchor="middle" transform="translate(-243,15)rotate(21.999999006829288)scale(1.0000000058678755,1.0000000058678755)" style="font-size: 10px; font-family: Impact; fill: rgb(132, 60, 57);">impressed</text><text text-anchor="middle" transform="translate(45,120)rotate(-12.50000031372537)skewX(0)scale(1.000000001739636,1.000000001739636)" style="font-size: 10px; font-family: Impact; fill: rgb(173, 73, 74);">PCA</text><text text-anchor="middle" transform="translate(62,-99)rotate(-0.999999946548801)skewX(1.9878466461721288e-16)scale(1.000000014962205,1.000000014962205)" style="font-size: 10px; font-family: Impact; fill: rgb(214, 97, 107);">PLSDA</text><text text-anchor="middle" transform="translate(-158,111)rotate(10.499999898849143)skewX(0)scale(1.000000001657459,1.000000001657459)" style="font-size: 10px; font-family: Impact; fill: rgb(231, 150, 156);">facilitate</text><text text-anchor="middle" transform="translate(229,-146)rotate(-12.500000313725373)skewX(0)scale(1.000000001739636,1.000000001739636)" style="font-size: 10px; font-family: Impact; fill: rgb(123, 65, 115);">picking</text><text text-anchor="middle" transform="translate(-230,81)rotate(21.999999006829288)skewX(0)scale(1.0000000058678755,1.0000000058678755)" style="font-size: 10px; font-family: Impact; fill: rgb(165, 81, 148);">biomarkers</text><text text-anchor="middle" transform="translate(105,-98)rotate(10.499999898849143)scale(1.000000001657459,1.000000001657459)" style="font-size: 10px; font-family: Impact; fill: rgb(206, 109, 189);">thousands</text><text text-anchor="middle" transform="translate(-32,205)rotate(-12.50000031372537)scale(1.000000001739636,1.000000001739636)" style="font-size: 10px; font-family: Impact; fill: rgb(222, 158, 214);">metabolites</text><text text-anchor="middle" transform="translate(-20,-33)rotate(-0.999999946548801)skewX(1.9878466461721274e-16)scale(1.000000014962205,1.000000014962205)" style="font-size: 84px; font-family: Impact; fill: rgb(181, 207, 107);">statistical</text><text text-anchor="middle" transform="translate(-162,158)rotate(-24.00000060111935)skewX(3.1805547638674516e-15)scale(0.9999999740913329,0.9999999740913329)" style="font-size: 44px; font-family: Impact; fill: rgb(206, 219, 156);">pharmaceutical</text><text text-anchor="middle" transform="translate(77,210)rotate(-0.999999946548801)skewX(1.9878466461721288e-16)scale(1.000000014962205,1.000000014962205)" style="font-size: 35px; font-family: Impact; fill: rgb(189, 158, 57);">knowledge</text><text text-anchor="middle" transform="translate(-44,235)rotate(-0.999999946548801)skewX(1.9878466461721274e-16)scale(1.000000014962205,1.000000014962205)" style="font-size: 24px; font-family: Impact; fill: rgb(132, 60, 57);">methodologies</text><text text-anchor="middle" transform="translate(-391,-86)rotate(-0.999999946548801)skewX(1.9878466461721288e-16)scale(1.000000014962205,1.000000014962205)" style="font-size: 24px; font-family: Impact; fill: rgb(231, 150, 156);">pharmacists</text><text text-anchor="middle" transform="translate(147,48)rotate(-24.000000601119346)skewX(3.1805547638674516e-15)scale(0.9999999740913329,0.9999999740913329)" style="font-size: 66px; font-family: Impact; fill: rgb(82, 84, 163);"></text><text text-anchor="middle" transform="translate(-226,-210)rotate(21.999999006829288)skewX(0)scale(1.0000000058678755,1.0000000058678755)" style="font-size: 35px; font-family: Impact; fill: rgb(82, 84, 163);">databe</text><text text-anchor="middle" transform="translate(-162,-91)rotate(-24.00000060111935)skewX(3.1805547638674516e-15)scale(0.9999999740913329,0.9999999740913329)" style="font-size: 24px; font-family: Impact; fill: rgb(107, 110, 207);">s</text><text text-anchor="middle" transform="translate(-228,55)rotate(10.499999898849145)skewX(0)scale(1.000000001657459,1.000000001657459)" style="font-size: 10px; font-family: Impact; fill: rgb(82, 84, 163);">know</text><text text-anchor="middle" transform="translate(-172,191)rotate(21.999999006829288)skewX(0)scale(1.0000000058678755,1.0000000058678755)" style="font-size: 10px; font-family: Impact; fill: rgb(107, 110, 207);">collection</text><text text-anchor="middle" transform="translate(193,137)rotate(10.499999898849143)scale(1.000000001657459,1.000000001657459)" style="font-size: 10px; font-family: Impact; fill: rgb(156, 158, 222);">interpretation</text><text text-anchor="middle" transform="translate(-223,199)rotate(-24.000000601119346)skewX(3.1805547638674516e-15)scale(0.9999999740913329,0.9999999740913329)" style="font-size: 10px; font-family: Impact; fill: rgb(99, 121, 57);">presentation</text><text text-anchor="middle" transform="translate(-236,-57)rotate(10.499999898849143)skewX(0)scale(1.000000001657459,1.000000001657459)" style="font-size: 10px; font-family: Impact; fill: rgb(140, 162, 82);">organization</text><text text-anchor="middle" transform="translate(-63,-218)rotate(-12.50000031372537)skewX(0)scale(1.000000001739636,1.000000001739636)" style="font-size: 35px; font-family: Impact; fill: rgb(140, 109, 49);">mathematical</text><text text-anchor="middle" transform="translate(-301,166)rotate(-24.00000060111935)skewX(3.1805547638674516e-15)scale(0.9999999740913329,0.9999999740913329)" style="font-size: 35px; font-family: Impact; fill: rgb(156, 158, 222);">national</text><text text-anchor="middle" transform="translate(345,-25)rotate(-24.00000060111935)skewX(3.1805547638674516e-15)scale(0.9999999740913329,0.9999999740913329)" style="font-size: 35px; font-family: Impact; fill: rgb(231, 203, 148);">program</text><text text-anchor="middle" transform="translate(379,-6)rotate(-12.500000313725373)skewX(0)scale(1.000000001739636,1.000000001739636)" style="font-size: 24px; font-family: Impact; fill: rgb(231, 186, 82);">medicine</text><text text-anchor="middle" transform="translate(57,20)rotate(10.499999898849145)skewX(0)scale(1.000000001657459,1.000000001657459)" style="font-size: 24px; font-family: Impact; fill: rgb(231, 203, 148);">quantitative</text><text text-anchor="middle" transform="translate(-136,-236)rotate(-24.00000060111935)skewX(3.1805547638674516e-15)scale(0.9999999740913329,0.9999999740913329)" style="font-size: 24px; font-family: Impact; fill: rgb(214, 97, 107);">exciting</text><text text-anchor="middle" transform="translate(-390,40)rotate(10.499999898849145)scale(1.000000001657459,1.000000001657459)" style="font-size: 24px; font-family: Impact; fill: rgb(123, 65, 115);">cooperate</text><text text-anchor="middle" transform="translate(307,-134)rotate(-24.00000060111935)skewX(3.1805547638674516e-15)scale(0.9999999740913329,0.9999999740913329)" style="font-size: 24px; font-family: Impact; fill: rgb(57, 59, 121);">construction</text></g></svg>